# xmcd CD database file
#
# Track frame offsets:
#	150
#	11855
#	37330
#	54608
#	73436
#	88818
#	122151
#	133387
#	155372
#	179169
#	192773
#	206056
#	244450
#	254393
#
# Disc length: 3686 seconds
#
# Revision: 2
# Processed by: cddbd v1.5.2PL0 Copyright (c) Steve Scherf et al.
# Submitted via: CDex 1.70beta2
#
DISCID=e80e640e
DTITLE=Quinteto Violado - Retirantes de sanfona e violadas
DYEAR=1900
DGENRE=
TTITLE0=Boiadeiro
TTITLE1=Asa branca
TTITLE2=No Ceará não tem disso não
TTITLE3=Respeita o Januário
TTITLE4=ABC do sertão
TTITLE5=KJarolina com K
TTITLE6=A morte do vaqueiro
TTITLE7=Jesus sertanejo
TTITLE8=P'ronde tu vai
TTITLE9=Que nem jiló
TTITLE10=Forró de mané vito
TTITLE11=Sá marica parteira
TTITLE12=A volta de asa branca
TTITLE13=São João de seu Luiz
EXTD=\n\n
EXTT0=
EXTT1=
EXTT2=
EXTT3=
EXTT4=
EXTT5=
EXTT6=
EXTT7=
EXTT8=
EXTT9=
EXTT10=
EXTT11=
EXTT12=
EXTT13=
PLAYORDER=
